<?xml version="1.0" encoding="UTF-8" standalone="no"?><!DOCTYPE svg PUBLIC "-//W3C//DTD SVG 1.1//EN" "http://www.w3.org/Graphics/SVG/1.1/DTD/svg11.dtd"><svg width="100%" height="100%" viewBox="0 0 17780 17780" version="1.1" xmlns="http://www.w3.org/2000/svg" xmlns:xlink="http://www.w3.org/1999/xlink" xml:space="preserve" xmlns:serif="http://www.serif.com/" style="fill-rule:evenodd;clip-rule:evenodd;stroke-linejoin:round;stroke-miterlimit:2;"><g id="logo-daniel.jpg" serif:id="logo daniel.jpg"><path d="M7659.619,9677.019c-32.181,-236.385 -10.015,-2481.703 -7.973,-2688.619c0.408,-41.475 219.604,-29.183 447.271,-30.058c102.075,-0.392 1395.846,1902.833 1446.492,1874.979c1.783,-0.983 -4.85,-1704.796 -0.979,-1828.063c2.088,-66.429 147.354,-51.471 464.196,-50.758c42.283,0.096 32.883,87.542 32.821,693.054c-0.162,1578.199 -1.701,1944.342 -16.036,2029.465l-457.708,0c-28.238,-17.358 -51.885,-43.692 -82.533,-83.052c-1098.233,-1500.429 -1136.59,-1520.783 -1307.981,-1781.779c-81.948,-124.792 16.572,76.657 -26.161,1864.831l-491.407,0Z" style="fill:#0740a2;"/><path d="M4528.733,9677.019c44.826,-153.479 396.855,-906.17 639.963,-1472.161c42.796,-99.637 523.596,-1219.021 547.375,-1240.033c15.258,-13.483 486.879,-7.029 488.433,-6.221c44.646,23.258 1102.375,2487.15 1195.696,2704.529c2.151,5.01 3.992,9.63 5.535,13.886l-549.768,0c-12.384,-17.944 -24.705,-40.677 -37.405,-69.236l-0.004,-0.009c-66.551,-165.561 -184.401,-477.421 -210.996,-488.246c-49.288,-20.062 -1135.221,-7.421 -1233.929,-6.271c-110.371,1.283 -75.346,56.092 -281.575,529.379c-5.324,12.218 -10.505,24.108 -28.489,34.381l-534.836,0Zm1556.371,-965.359c54.183,-0.025 358.704,11.723 357.746,-22.281c-2.721,-96.367 -34.567,-87.375 -458.396,-1114.463c-37.958,-91.983 -456.9,1006.733 -491.15,1096.546c-16.908,44.338 22.671,40.744 591.8,40.198Z" style="fill:#0649bb;"/><path d="M11548.428,9677.019c-21.964,-95.606 -17.676,-546.39 -17.207,-2671.867c4.004,-32.904 -1.833,-34.74 11.267,-44.123c18.121,-12.983 1735.325,-5.921 1886.221,-5.3c49.371,0.204 34.821,221.146 33.296,413.967c-0.354,44.808 -33.513,39.254 -50.542,39.275c-1247.342,1.675 -1245.458,-1.575 -1353.754,-0.521c-52.467,0.512 -48.763,26.946 -28.062,655.254c1.267,38.475 26.4,21.121 1243.242,29.746c33.992,0.242 77.525,8.888 37.55,423.258c-4.354,45.15 -1063.208,10.013 -1252.7,20.154c-4.325,0.233 -36.321,-1.033 -29.183,672.763c0.721,68.067 1218.196,15.167 1470.067,29.85c56.504,3.293 42.12,347.261 25.284,437.544l-1975.477,0Z" style="fill:#022163;"/><path d="M2123.537,9677.019c-38.467,-104.355 1.665,-496.436 5.73,-536.148c5.504,-53.779 498.133,-51.125 502.421,-0.542c14.096,166.304 91.45,85.817 258.887,84.942c63.4,-0.333 937.529,106.8 1113.833,-674.304c126.804,-561.8 -273.779,-1050.363 -801.213,-1061.392c-537.804,-11.246 -553.254,-22.071 -569.229,20.604c-2.983,7.975 9.742,203.825 -38.625,204.367c-340.138,3.783 -466.596,16.629 -467.6,-49.617c-10.271,-676.279 -23.229,-708.838 33.708,-711.938c343.363,-18.683 958.158,2.054 1041.425,4.862c718.683,24.242 1081.312,538.335 1141.279,623.348c546.628,1040.715 -51.299,1940.667 -921.515,2095.817l-1299.103,0Zm1062.307,-2452.325c-519.354,1.758 -693.823,7.552 -712.098,-10.935c-11.496,-11.633 -53.017,-90.896 -155.583,-83.337c-276.525,20.379 -16.871,471.379 147.979,216.746c31.329,-48.392 43.204,-56.071 719.525,-39.404c747.133,18.413 1014.046,587.371 1048.079,929.967c2.262,22.771 -182.204,164.4 -57.917,277.408c87.796,79.829 51.808,95.417 13.354,207.596c-247.2,721.188 -929.242,714.279 -1662.933,688.821c-62.892,-2.183 -74.771,-109.767 -173.896,-107.983c-312.017,5.617 -57.479,468.35 115.246,231.525c69.721,-95.596 687.912,-4.471 961.317,-64.158c814.096,-177.721 877.742,-905.533 890.913,-914.908c17.446,-12.421 208.779,-148.633 44.837,-263.883c-146.775,-103.179 -18.985,-983.398 -1178.823,-1067.452Z" style="fill:#0b5add;"/><path d="M13891.527,9677.019c-21.432,-86.276 -20.489,-469.145 -20.302,-2168.265c0.033,-317.2 -9.171,-548.779 27.108,-550.508c464.45,-22.104 470.429,9.5 477.567,47.225c5.867,2195.917 -15.896,2237.054 42.587,2237.208c1275.783,3.362 1321.208,-30.846 1321.883,36.729c1.622,162.484 10.401,334.501 -12.853,397.611l-1835.991,0Z" style="fill:#032161;"/><path d="M10560.943,9677.019c-21.467,-57.583 -17.099,-244.629 -15.643,-848.89c4.038,-1678.733 -11.45,-1763.242 32.875,-1715.167c10.575,11.471 94.067,102.025 160.046,111.454c13.771,1.967 131.625,-36.26 -53.712,-165.394c-256.133,-197.704 39.629,-443.91 153.017,-376.223c381.013,227.433 8.688,364.046 -6.775,444.75c-37.371,195.062 176.158,-16.35 184.9,-16.637c41.458,-1.363 15.988,2346.383 13.775,2550.408c-0.065,5.995 -2.065,11.195 -6.02,15.698l-462.462,-0Zm100.265,-2740.244c28.508,92.325 123.771,123.417 105.329,17.367c-30.933,-177.879 69.313,-113.467 72.417,-103.829c12.562,38.996 -60.363,237.587 72.442,120.113c122.562,-108.413 -247.8,-456.317 -250.188,-33.65Z" style="fill:#021c5a;"/><path d="M3341.746,8054.544c-57.937,-13.371 -62.408,-0.169 -102.388,-43.856c-74.254,-81.129 -86.246,-66.992 -313.771,-60.742c-55.837,1.533 -222.783,195.371 -247.483,212.387c-52.438,36.125 -18.046,55.2 -47.842,92.908c-19.921,25.212 -475.625,13.35 -483.104,10.45c-18.433,-7.15 -16.404,-153.075 -16.217,-166.45c0.679,-48.912 212.692,-35.617 464.571,-36.979c147.642,-0.796 126.792,-47.975 228.65,-151.529c68.062,-69.196 357.688,-27.317 380.083,-53.717c16.225,-19.121 25.492,-43.517 41.887,-62.492c134.621,-155.763 450.583,192.21 95.612,260.019Zm33.112,-81.327c7.033,-7.575 80.129,-86.271 14.346,-128.4c-106.367,-68.121 -181.992,158.262 -14.346,128.4Z" style="fill:#1160d8;"/><path d="M2769.092,8334.096c323.329,0.458 453.242,31.25 522.233,-60.379c5.575,-7.4 40.371,-53.617 102.775,-53.396c307.879,1.096 90.096,458.096 -101.675,240.938c-73.787,-83.558 -190.321,-55.592 -401.804,-55.533c-172.263,0.046 -250.888,-62.992 -258.417,110.071c-2.325,53.404 -161.583,38.062 -453.425,38.217c-117.071,0.062 -48.954,-62.217 -47.942,-177.062c0.446,-50.35 32.217,-25.925 638.254,-42.854Zm710.379,42.413c-1.275,-10.329 -13.925,-112.842 -105.833,-75.7c-99.646,40.271 12.142,245.346 105.833,75.7Z" style="fill:#1260d7;"/><path d="M2525.89,9029.015c-117.842,0.179 -394.027,15.61 -395.627,-27.881c-0.512,-13.996 -6.325,-171.996 31.287,-172.254c391.229,-2.671 463.125,1.863 467.692,34.146c9.5,67.133 18.871,71.225 87.775,71.729c265.792,1.95 362.571,33.637 453.55,-69.833c175.329,-199.404 394.971,258.412 85.188,251.321c-93.45,-2.138 -112.079,-103.829 -156.029,-104.292c-45.925,-0.488 -368.135,-3.89 -573.835,17.065Zm708.223,-120.21c-121.929,114.192 126.133,178.783 108.75,58.179c-12.262,-85.096 -99.246,-60.833 -108.75,-58.179Z" style="fill:#135fd3;"/><path d="M2716.954,8710.294c-224.062,37.358 -222.071,40.119 -451.471,40.327c-98.829,0.087 -136.975,18.592 -136.054,-78.592c0.858,-90.754 606.779,-7.833 639.183,-52.638c195.717,-270.629 326.542,22.446 269.7,117.629c-103.933,174.025 -245.329,-10.085 -321.358,-26.727Zm225.358,-107.14c-9.621,-2.321 -111.342,-26.862 -102.9,68.638c10.679,120.792 233.896,38.796 102.9,-68.638Z" style="fill:#1761d5;"/><path d="M2283.008,7989.596c-126.004,-2.692 -132.662,10.104 -149.779,-15.533c-7.062,-10.575 -4.496,-140.429 -4.254,-152.646c0.708,-35.829 70.433,-32.671 466.258,-30.479c42.204,0.233 36.058,155.375 35.508,169.196c-2.742,69.179 -42.604,27.575 -347.733,29.463Z" style="fill:#105fda;"/><path d="M4224.779,8374.988c137.442,-100.242 138.629,69.413 91.688,92.317c-117.017,57.092 -93.425,-82.054 -91.688,-92.317Z" style="fill:#165ada;"/><path d="M2315.546,9509.604c-6.879,-5.487 -73.246,-58.396 -15.517,-108.904c81.05,-70.912 165.762,122.192 15.517,108.904Z" style="fill:#1460da;"/><path d="M2277.571,7245.696c5.525,-6.688 57.125,-69.146 107.621,-13.042c67.183,74.642 -118.292,165.321 -107.621,13.042Z" style="fill:#1c62dc;"/><g transform="matrix(1253.194427,0,0,1253.194427,11607.737007,10830.678452)"></g><text x="5833.017px" y="10830.678px" style="font-family:'Poppins-Medium', 'Poppins';font-weight:500;font-size:1253.194px;">Tech Cell</text></g></svg>